<?xml version="1.0"?>
<svg width="49.74245785" height="51.31690859" xmlns="http://www.w3.org/2000/svg" xmlns:svg="http://www.w3.org/2000/svg">
 <g class="layer">
  <title>Layer 1</title>
  <path d="m49.63,11.56a0.81,0.81 0 0 1 0.02,0.21l0,10.97a0.8,0.8 0 0 1 -0.4,0.7l-9.21,5.3l0,10.51c0,0.29 -0.15,0.55 -0.4,0.69l-19.22,11.07c-0.04,0.03 -0.09,0.04 -0.14,0.06c-0.02,0 -0.04,0.02 -0.05,0.02a0.81,0.81 0 0 1 -0.41,0c-0.03,-0.01 -0.05,-0.02 -0.07,-0.03c-0.04,-0.01 -0.09,-0.03 -0.13,-0.05l-19.22,-11.07a0.8,0.8 0 0 1 -0.4,-0.69l0,-32.92c0,-0.07 0.01,-0.14 0.03,-0.21c0,-0.02 0.02,-0.04 0.03,-0.06c0.01,-0.05 0.02,-0.09 0.05,-0.13c0.01,-0.02 0.03,-0.04 0.05,-0.07c0.02,-0.03 0.05,-0.06 0.07,-0.09c0.03,-0.02 0.06,-0.04 0.08,-0.06c0.03,-0.03 0.06,-0.05 0.09,-0.07l0,0l9.61,-5.53a0.8,0.8 0 0 1 0.8,0l9.61,5.53l0,0c0.03,0.02 0.06,0.04 0.09,0.07c0.03,0.02 0.06,0.04 0.08,0.06c0.03,0.03 0.05,0.06 0.07,0.09c0.02,0.03 0.04,0.05 0.05,0.07c0.03,0.04 0.04,0.08 0.06,0.13c0,0.02 0.02,0.04 0.02,0.06a0.81,0.81 0 0 1 0.03,0.21l0,20.56l8.01,-4.61l0,-10.51c0,-0.07 0.01,-0.14 0.03,-0.21c0.01,-0.02 0.02,-0.04 0.03,-0.06c0.01,-0.05 0.03,-0.09 0.05,-0.13c0.01,-0.02 0.04,-0.05 0.05,-0.07c0.03,-0.03 0.05,-0.06 0.07,-0.09c0.03,-0.03 0.06,-0.04 0.08,-0.06c0.03,-0.03 0.06,-0.05 0.09,-0.07l0,0l9.61,-5.53a0.8,0.8 0 0 1 0.8,0l9.61,5.53c0.04,0.02 0.06,0.04 0.09,0.07c0.03,0.02 0.06,0.03 0.08,0.06c0.03,0.03 0.05,0.06 0.07,0.09c0.02,0.02 0.04,0.05 0.06,0.07c0.02,0.04 0.03,0.08 0.05,0.13c0.01,0.02 0.02,0.04 0.03,0.06zm-1.58,10.72l0,-9.12l-3.36,1.93l-4.65,2.68l0,9.12l8.01,-4.61zm-9.61,16.51l0,-9.13l-4.57,2.61l-13.05,7.44l0,9.22l17.62,-10.14zm-36.84,-31.07l0,31.07l17.62,10.14l0,-9.21l-9.2,-5.21l-0.01,0l0,-0.01c-0.03,-0.02 -0.06,-0.04 -0.09,-0.06c-0.02,-0.02 -0.05,-0.04 -0.07,-0.06l-0.01,0c-0.02,-0.03 -0.04,-0.06 -0.06,-0.09c-0.02,-0.03 -0.05,-0.05 -0.06,-0.08l0,0c-0.02,-0.03 -0.03,-0.07 -0.04,-0.1c-0.02,-0.03 -0.03,-0.06 -0.04,-0.09l0,0c-0.01,-0.04 -0.01,-0.08 -0.02,-0.12c0,-0.03 -0.01,-0.06 -0.01,-0.09l0,-21.48l-4.65,-2.68l-3.36,-1.93zm8.81,-6l-8.01,4.61l8.01,4.61l8.01,-4.61l-8.01,-4.61zm4.17,28.77l4.64,-2.68l0,-20.09l-3.36,1.93l-4.65,2.68l0,20.1l3.37,-1.94zm24.66,-23.33l-8,4.61l8,4.61l8.01,-4.61l-8.01,-4.61zm-0.8,10.61l-4.64,-2.68l-3.37,-1.93l0,9.12l4.65,2.68l3.36,1.93l0,-9.12zm-18.42,20.56l11.74,-6.7l5.87,-3.35l-8,-4.61l-9.21,5.3l-8.39,4.84l7.99,4.52z" fill="#6f665a" id="svg_1"/>
 </g>
</svg>